<svg height="512" viewBox="0 0 64 64" width="512" xmlns="http://www.w3.org/2000/svg"><g id="computer-laptop-gear-digital-data_analytics" data-name="computer-laptop-gear-digital-data analytics"><g fill="#78b9eb"><path d="m61 53v6a2.006 2.006 0 0 1 -2 2h-54a2.006 2.006 0 0 1 -2-2v-6h24l1 4h10l1-4z"/><circle cx="52" cy="45" r="3"/><circle cx="12" cy="45" r="3"/><circle cx="32" cy="45" r="3"/><circle cx="56" cy="8" r="3"/><circle cx="32" cy="17" r="4"/><path d="m21.34 23a1.273 1.273 0 0 0 -.11-.74 10.98 10.98 0 0 1 -.57-1.37 1.341 1.341 0 0 0 -1.28-.89 1.383 1.383 0 0 1 -1.38-1.38v-3.24a1.383 1.383 0 0 1 1.38-1.38 1.341 1.341 0 0 0 1.28-.89 10.98 10.98 0 0 1 .57-1.37 1.283 1.283 0 0 0 .13-.57 1.378 1.378 0 0 0 -.41-.98 1.364 1.364 0 0 1 0-1.94l2.3-2.3a1.373 1.373 0 0 1 .97-.41 1.356 1.356 0 0 1 .97.41 1.361 1.361 0 0 0 1.55.28 10.98 10.98 0 0 1 1.37-.57 1.341 1.341 0 0 0 .89-1.28 1.383 1.383 0 0 1 1.38-1.38h3.24a1.383 1.383 0 0 1 1.38 1.38 1.341 1.341 0 0 0 .89 1.28 10.98 10.98 0 0 1 1.37.57 1.283 1.283 0 0 0 .57.13 1.378 1.378 0 0 0 .98-.41 1.364 1.364 0 0 1 1.94 0l2.3 2.3a1.373 1.373 0 0 1 .41.97 1.356 1.356 0 0 1 -.41.97 1.361 1.361 0 0 0 -.28 1.55 10.98 10.98 0 0 1 .57 1.37 1.341 1.341 0 0 0 1.28.89 1.383 1.383 0 0 1 1.38 1.38v3.24a1.383 1.383 0 0 1 -1.38 1.38 1.341 1.341 0 0 0 -1.28.89 10.98 10.98 0 0 1 -.57 1.37 1.283 1.283 0 0 0 -.13.57.5.5 0 0 0 .02.17 1.318 1.318 0 0 0 .39.81 1.364 1.364 0 0 1 0 1.94l-.9.9-1.4 1.4a1.373 1.373 0 0 1 -.97.41 1.356 1.356 0 0 1 -.97-.41 1.361 1.361 0 0 0 -1.55-.28 10.98 10.98 0 0 1 -1.37.57 1.341 1.341 0 0 0 -.89 1.28 1.383 1.383 0 0 1 -1.38 1.38h-3.24a1.383 1.383 0 0 1 -1.38-1.38 1.341 1.341 0 0 0 -.89-1.28 10.98 10.98 0 0 1 -1.37-.57 1.283 1.283 0 0 0 -.57-.13 1.378 1.378 0 0 0 -.98.41 1.364 1.364 0 0 1 -1.94 0l-1.4-1.4-.9-.9a1.373 1.373 0 0 1 -.41-.97 1.356 1.356 0 0 1 .41-.97 1.318 1.318 0 0 0 .39-.81zm18.66-6a8 8 0 1 0 -8 8 8 8 0 0 0 8-8z"/><circle cx="8" cy="8" r="3"/></g><path d="m61 52v-27a3.009 3.009 0 0 0 -3-3h-14.04c.11-.26.23-.51.32-.78a.365.365 0 0 1 .34-.22 2.386 2.386 0 0 0 2.38-2.38v-.62h9a1 1 0 0 0 1-1v-5.14a4 4 0 1 0 -2 0v4.14h-8v-.62a2.386 2.386 0 0 0 -2.38-2.38.365.365 0 0 1 -.34-.22 12.092 12.092 0 0 0 -.61-1.48.361.361 0 0 1 .09-.4 2.39 2.39 0 0 0 0-3.36l-2.3-2.3a2.39 2.39 0 0 0 -3.36 0 .364.364 0 0 1 -.4.09 12.092 12.092 0 0 0 -1.48-.61.365.365 0 0 1 -.22-.34 2.386 2.386 0 0 0 -2.38-2.38h-3.24a2.386 2.386 0 0 0 -2.38 2.38.365.365 0 0 1 -.22.34 12.092 12.092 0 0 0 -1.48.61.361.361 0 0 1 -.4-.09 2.39 2.39 0 0 0 -3.36 0l-2.3 2.3a2.39 2.39 0 0 0 0 3.36.361.361 0 0 1 .09.4 12.092 12.092 0 0 0 -.61 1.48.365.365 0 0 1 -.34.22 2.386 2.386 0 0 0 -2.38 2.38v.62h-8v-4.14a4 4 0 1 0 -2 0v5.14a1 1 0 0 0 1 1h9v.62a2.386 2.386 0 0 0 2.38 2.38.365.365 0 0 1 .34.22c.09.27.21.52.32.78h-14.04a3.009 3.009 0 0 0 -3 3v27a1 1 0 0 0 -1 1v6a3.009 3.009 0 0 0 3 3h54a3.009 3.009 0 0 0 3-3v-6a1 1 0 0 0 -1-1zm-7-44a2 2 0 1 1 2 2 2.006 2.006 0 0 1 -2-2zm-48 0a2 2 0 1 1 2 2 2.006 2.006 0 0 1 -2-2zm13.38 11a.38.38 0 0 1 -.38-.38v-3.24a.38.38 0 0 1 .38-.38 2.345 2.345 0 0 0 2.23-1.57 9.142 9.142 0 0 1 .52-1.25 2.367 2.367 0 0 0 -.47-2.69.368.368 0 0 1 0-.53l2.3-2.3a.368.368 0 0 1 .53 0 2.367 2.367 0 0 0 2.69.47 9.142 9.142 0 0 1 1.25-.52 2.345 2.345 0 0 0 1.57-2.23.38.38 0 0 1 .38-.38h3.24a.38.38 0 0 1 .38.38 2.345 2.345 0 0 0 1.57 2.23 9.142 9.142 0 0 1 1.25.52 2.367 2.367 0 0 0 2.69-.47.368.368 0 0 1 .53 0l2.3 2.3a.368.368 0 0 1 0 .53 2.367 2.367 0 0 0 -.47 2.69 9.142 9.142 0 0 1 .52 1.25 2.345 2.345 0 0 0 2.23 1.57.38.38 0 0 1 .38.38v3.24a.38.38 0 0 1 -.38.38 2.345 2.345 0 0 0 -2.23 1.57 9.142 9.142 0 0 1 -.52 1.25 2.367 2.367 0 0 0 .47 2.69.368.368 0 0 1 0 .53l-2.3 2.3a.368.368 0 0 1 -.53 0 2.351 2.351 0 0 0 -2.69-.47 9.142 9.142 0 0 1 -1.25.52 2.345 2.345 0 0 0 -1.57 2.23.38.38 0 0 1 -.38.38h-3.24a.38.38 0 0 1 -.38-.38 2.345 2.345 0 0 0 -1.57-2.23 9.142 9.142 0 0 1 -1.25-.52 2.4 2.4 0 0 0 -1.01-.23 2.362 2.362 0 0 0 -1.68.7.368.368 0 0 1 -.53 0l-2.3-2.3a.368.368 0 0 1 0-.53 2.367 2.367 0 0 0 .47-2.69 9.142 9.142 0 0 1 -.52-1.25 2.345 2.345 0 0 0 -2.23-1.57zm-14.38 6a1 1 0 0 1 1-1h13.69a2.382 2.382 0 0 0 .55 2.46l.18.17-9.11 8.64a1.014 1.014 0 0 0 -.31.73v5.14a4 4 0 1 0 2 0v-4.71l8.83-8.38.71.71a2.39 2.39 0 0 0 3.36 0 .364.364 0 0 1 .4-.09 12.092 12.092 0 0 0 1.48.61.365.365 0 0 1 .22.34 2.386 2.386 0 0 0 2.38 2.38h.62v9.14a4 4 0 1 0 2 0v-9.14h.62a2.386 2.386 0 0 0 2.38-2.38.365.365 0 0 1 .22-.34 12.092 12.092 0 0 0 1.48-.61.361.361 0 0 1 .4.09 2.39 2.39 0 0 0 3.36 0l.71-.71 8.83 8.38v4.71a4 4 0 1 0 2 0v-5.14a1.014 1.014 0 0 0 -.31-.73l-9.11-8.64.18-.17a2.382 2.382 0 0 0 .55-2.46h13.69a1 1 0 0 1 1 1v27h-54zm7 18a2 2 0 1 1 -2 2 2.006 2.006 0 0 1 2-2zm20 0a2 2 0 1 1 -2 2 2.006 2.006 0 0 1 2-2zm20 0a2 2 0 1 1 -2 2 2.006 2.006 0 0 1 2-2zm-14.28 11-.5 2h-8.44l-.5-2zm22.28 5a1 1 0 0 1 -1 1h-54a1 1 0 0 1 -1-1v-5h22.22l.81 3.24a1 1 0 0 0 .97.76h10a1 1 0 0 0 .97-.76l.81-3.24h20.22z" fill="#006df0"/><path d="m32 26a9 9 0 1 0 -9-9 9.011 9.011 0 0 0 9 9zm0-16a7 7 0 1 1 -7 7 7.008 7.008 0 0 1 7-7z" fill="#006df0"/><path d="m32 22a5 5 0 1 0 -5-5 5.006 5.006 0 0 0 5 5zm0-8a3 3 0 1 1 -3 3 3 3 0 0 1 3-3z" fill="#006df0"/><path d="m57 27a1 1 0 0 0 -1-1h-3v2h2v2h2z" fill="#006df0"/><path d="m9 28h2v-2h-3a1 1 0 0 0 -1 1v3h2z" fill="#006df0"/></g></svg>